# xmcd CD database file
#
# Track frame offsets:
#	150
#	37445
#	76403
#	111375
#	153219
#	171871
#
# Disc length: 2765 seconds
#
# Revision: 0
# Processed by: cddbd v1.5.2PL0 Copyright (c) Steve Scherf et al.
# Submitted via: CDex 1.51
#
DISCID=4a0acb06
DTITLE=Medesky Scofield Martin and Wood - Out louder (Bonus Live CD)
DYEAR=2007
DGENRE=Jazz
TTITLE0=A Go Go (Live)
TTITLE1=Cachaca (Live)
TTITLE2=The Tube (Live)
TTITLE3=Amazing Grace (Live)
TTITLE4=Deadzy (Live)
TTITLE5=What Now (Live)
EXTD=YEAR: 2007
EXTT0=
EXTT1=
EXTT2=
EXTT3=
EXTT4=
EXTT5=
PLAYORDER=
